<svg t="1567387243323" class="icon" viewBox="0 0 1024 1024" version="1.1" xmlns="http://www.w3.org/2000/svg" p-id="7517" xmlns:xlink="http://www.w3.org/1999/xlink" width="128" height="128"><defs><style type="text/css"></style></defs><path d="M512 512zM508.8 899.2c-144 0-262.4-118.4-262.4-262.4s118.4-262.4 262.4-262.4 262.4 118.4 262.4 262.4c-3.2 144-118.4 262.4-262.4 262.4z m0-460.8c-108.8 0-198.4 89.6-198.4 198.4s89.6 198.4 198.4 198.4c108.8 0 198.4-89.6 198.4-198.4-3.2-108.8-89.6-198.4-198.4-198.4z" p-id="7518"></path><path d="M1024 902.4h-288v-67.2h224V316.8h-278.4l-9.6-32-48-96h-233.6l-51.2 105.6-6.4 22.4H64v518.4h211.2v67.2H0V249.6h288l64-128h310.4l64 128H1024z" p-id="7519"></path><path d="M432 646.4h-64c0-80 67.2-147.2 147.2-147.2v64c-44.8 0-83.2 35.2-83.2 83.2zM822.4 371.2h89.6v48h-89.6v-48z" p-id="7520"></path></svg>