<svg t="1567387139194" class="icon" viewBox="0 0 1024 1024" version="1.1" xmlns="http://www.w3.org/2000/svg" p-id="4549" xmlns:xlink="http://www.w3.org/1999/xlink" width="128" height="128"><defs><style type="text/css"></style></defs><path d="M841.984 937.216h-228.608c-53.504 0-97.024-43.52-97.024-97.024v-657.92c0-53.504 43.52-97.024 97.024-97.024h228.608c53.504 0 97.024 43.52 97.024 97.024v657.92c0 53.504-43.52 97.024-97.024 97.024zM613.376 133.12c-27.136 0-49.152 22.016-49.152 49.152v657.92c0 27.136 22.016 49.152 49.152 49.152h228.608c27.136 0 49.152-22.016 49.152-49.152v-657.92c0-27.136-22.016-49.152-49.152-49.152h-228.608zM370.688 937.216H198.144c-43.52 0-78.848-35.328-78.848-78.848V299.008l165.12-221.184 165.12 221.184v559.104c0 43.52-35.328 79.104-78.848 79.104zM166.912 314.88v543.232c0 17.152 14.08 31.232 31.232 31.232h172.544c17.152 0 31.232-14.08 31.232-31.232V314.88l-117.504-157.44L166.912 314.88z" p-id="4550"></path><path d="M143.104 283.136h282.624v47.616H143.104zM664.32 302.08h-113.664c-13.056 0-23.808-10.752-23.808-23.808 0-13.056 10.752-23.808 23.808-23.808h113.664c13.056 0 23.808 10.752 23.808 23.808 0 13.312-10.752 23.808-23.808 23.808zM664.32 620.8h-113.664c-13.056 0-23.808-10.752-23.808-23.808s10.752-23.808 23.808-23.808h113.664c13.056 0 23.808 10.752 23.808 23.808s-10.752 23.808-23.808 23.808zM664.32 780.032h-113.664c-13.056 0-23.808-10.752-23.808-23.808s10.752-23.808 23.808-23.808h113.664c13.056 0 23.808 10.752 23.808 23.808s-10.752 23.808-23.808 23.808zM727.552 461.568h-176.896c-13.056 0-23.808-10.752-23.808-23.808s10.752-23.808 23.808-23.808h176.896c13.056 0 23.808 10.752 23.808 23.808s-10.752 23.808-23.808 23.808z" p-id="4551"></path></svg>