<svg t="1567387197843" class="icon" viewBox="0 0 1024 1024" version="1.1" xmlns="http://www.w3.org/2000/svg" p-id="5923" xmlns:xlink="http://www.w3.org/1999/xlink" width="128" height="128"><defs><style type="text/css"></style></defs><path d="M925.866667 836.266667l-64-298.666667c-8.533333-38.4-42.666667-68.266667-85.333334-68.266667h-34.133333c34.133333-85.333333 42.666667-179.2-12.8-260.266666-46.933333-72.533333-128-123.733333-213.333333-123.733334H512C371.2 85.333333 256 200.533333 256 341.333333c0 42.666667 12.8 85.333333 25.6 128h-34.133333c-38.4 0-76.8 29.866667-85.333334 68.266667l-64 298.666667c-4.266667 25.6 0 51.2 17.066667 72.533333 17.066667 17.066667 42.666667 29.866667 68.266667 29.866667h657.066666c25.6 0 51.2-12.8 68.266667-29.866667 17.066667-21.333333 21.333333-51.2 17.066667-72.533333zM512 170.666667c59.733333 0 110.933333 34.133333 145.066667 81.066666 81.066667 123.733333-46.933333 290.133333-128 379.733334-4.266667 8.533333-12.8 8.533333-17.066667 8.533333-4.266667 0-12.8 0-17.066667-8.533333C396.8 524.8 341.333333 422.4 341.333333 341.333333c0-93.866667 76.8-170.666667 170.666667-170.666666zM183.466667 853.333333l64-298.666666h81.066666c34.133333 51.2 72.533333 98.133333 102.4 136.533333 21.333333 25.6 51.2 34.133333 81.066667 34.133333s59.733333-12.8 81.066667-34.133333c34.133333-38.4 72.533333-85.333333 106.666666-136.533333h81.066667l64 298.666666H183.466667z" p-id="5924"></path></svg>