<svg t="1567386850414" class="icon" viewBox="0 0 1024 1024" version="1.1" xmlns="http://www.w3.org/2000/svg" p-id="1955" xmlns:xlink="http://www.w3.org/1999/xlink" width="128" height="128"><defs><style type="text/css"></style></defs><path d="M96.83456 952.29952a26.43456 26.43456 0 0 1-26.40384-26.40384V96.64a26.43456 26.43456 0 0 1 26.40384-26.40384h542.16704a26.42944 26.42944 0 0 1 26.40384 26.40384v264.60672h261.8624c14.50496 0 26.38848 11.83744 26.50112 26.38336V925.9008a26.42944 26.42944 0 0 1-26.40384 26.40384H96.83456z m801.05472-52.80768c1.6384 0 2.9696-1.3312 2.9696-2.9696V417.01888c0-1.6384-1.3312-2.97472-2.9696-2.97472h-233.17504v73.41056h34.4064c7.28064 0 14.30528 3.06176 19.2768 8.3968a26.2656 26.2656 0 0 1 7.01952 19.97312c-0.98816 13.48096-13.00992 24.43776-26.78272 24.43776h-124.0576a26.43968 26.43968 0 0 1-19.2768-8.3968 26.27584 26.27584 0 0 1-7.01952-19.97824c0.99328-13.47584 13.00992-24.43264 26.78272-24.43264h37.34016l0.19456-191.17056V126.01344a2.97984 2.97984 0 0 0-2.97472-2.97472H126.208c-1.6384 0-2.97472 1.3312-2.97472 2.97472v359.58272h302.89408c7.28064 0 14.30016 3.06176 19.27168 8.39168a26.27072 26.27072 0 0 1 7.02464 19.97824c-0.99328 13.47584-13.01504 24.43776-26.78784 24.43776H123.23328v357.9136c0 1.6384 1.3312 2.97472 2.97472 2.97472h485.69856v-238.26432c0-14.53568 11.86304-26.36288 26.43968-26.36288 0.64 0 1.28512 0.0256 1.93536 0.07168 13.47584 0.98816 24.43264 13.00992 24.43264 26.78272v237.77792l233.17504 0.19456z" p-id="1956"></path></svg>