<?xml version="1.0" encoding="utf-8"?>
<!-- Generator: Adobe Illustrator 16.0.0, SVG Export Plug-In . SVG Version: 6.00 Build 0)  -->
<!DOCTYPE svg PUBLIC "-//W3C//DTD SVG 1.1//EN" "http://www.w3.org/Graphics/SVG/1.1/DTD/svg11.dtd">
<svg version="1.1" id="图层_1" xmlns="http://www.w3.org/2000/svg" xmlns:xlink="http://www.w3.org/1999/xlink" x="0px" y="0px"
	 width="128px" height="128px" viewBox="0 0 128 128" enable-background="new 0 0 128 128" xml:space="preserve">
<path d="M102.212,11.888H25.148c-3.825,0-6.954,3.129-6.954,6.953v91.086c0,3.824,3.129,6.954,6.954,6.954h77.063
	c3.824,0,6.953-3.13,6.953-6.954V18.841C109.281,15.017,106.152,11.888,102.212,11.888z M102.212,104.712
	c0,2.897-2.317,5.215-5.214,5.215h-66.52c-2.896,0-5.214-2.317-5.214-5.215V24.171c0-2.897,2.318-5.214,5.214-5.214h66.52
	c2.896,0,5.214,2.317,5.214,5.214V104.712z M56.669,36.456H35.694v6.953h20.975V36.456z M70.691,57.431H35.694v6.953h34.998V57.431
	L70.691,57.431z M35.694,85.475h49.02v-6.952h-49.02V85.475z"/>
</svg>
