<svg version="1.1" id="图层_1" xmlns="http://www.w3.org/2000/svg" xmlns:xlink="http://www.w3.org/1999/xlink" x="0px" y="0px"
	 width="128px" height="128px" viewBox="0 0 128 128" enable-background="new 0 0 128 128" xml:space="preserve">
<path d="M54.793,49.582c-26.719,0-48.604,19.98-48.604,45.963v5.193c0,2.972,1.884,5.195,4.854,5.195s4.854-2.224,4.854-5.195
	v-5.193c0-20.04,18.117-36.254,38.895-36.254h51.962L81.512,83.729c-2.224,2.223-2.224,5.146,0,7.369
	c2.233,2.232,5.204,2.232,7.428,0.01l34.146-33.39c2.224-2.223,2.224-5.175,0-7.398L88.949,16.969
	c-2.233-2.233-5.204-2.126-7.428,0.097s-2.224,5.398,0,7.622l25.233,24.894H54.793L54.793,49.582z"/>
</svg>
