<svg t="1567387218948" class="icon" viewBox="0 0 1024 1024" version="1.1" xmlns="http://www.w3.org/2000/svg" p-id="6720" xmlns:xlink="http://www.w3.org/1999/xlink" width="128" height="128"><defs><style type="text/css"></style></defs><path d="M761.7 717.7H447.5c-22.3 0-40.4-18.1-40.4-40.4V517.6l-20.1-16c-9.2-7.3-14.7-18.4-15.1-30.2-0.4-11.8 4.4-23.2 13.1-31.2l175.7-161c22.5-20.6 56.3-20.6 78.8-0.1l177.3 160.7c8.9 8.1 13.7 19.6 13.2 31.6s-6.3 23.1-15.8 30.4l-20.8 16v168c0.1 17.6-14.2 31.9-31.7 31.9zM452 672.8h296.6v-166c0-7 3.2-13.5 8.7-17.8l25.3-19.5-173.2-157.1-0.1-0.1c-5.2-4.7-13-4.7-18.2 0L419.2 469.8l24.4 19.5c5.3 4.3 8.4 10.7 8.4 17.5v166z m334.7-199.7h0.3-0.3z m0.2-6.9zM164.9 959c-55.3 0-100.2-45-100.2-100.3V165.3C64.7 110 109.6 65 164.9 65s100.2 45 100.2 100.3v693.5c0 55.2-45 100.2-100.2 100.2z m0-849.1c-30.5 0-55.3 24.8-55.3 55.3v693.5c0 30.5 24.8 55.3 55.3 55.3s55.3-24.8 55.3-55.3V165.3c0-30.6-24.8-55.4-55.3-55.4z" p-id="6721"></path><path d="M164.5 947.8c-55.1 0-99.9-44.8-99.9-99.9s44.8-99.9 99.9-99.9 99.9 44.8 99.9 99.9-44.8 99.9-99.9 99.9z m0-154.8c-30.3 0-55 24.7-55 55s24.7 55 55 55 55-24.7 55-55-24.7-55-55-55zM665.7 717.7H535.6c-12.4 0-22.4-10.1-22.4-22.4v-110c0-12.4 10.1-22.4 22.4-22.4h130.1c12.4 0 22.4 10.1 22.4 22.4v109.9c0 12.4-10 22.5-22.4 22.5zM558 672.8h85.2v-65H558v65z" p-id="6722"></path><path d="M889.2 909H238.6c-12.4 0-22.4-10.1-22.4-22.4s10.1-22.4 22.4-22.4h650.6c13.9 0 25.2-9.2 25.2-20.5V180.4c0-11.3-11.3-20.5-25.2-20.5H241.4c-12.4 0-22.4-10.1-22.4-22.4 0-12.5 10-22.5 22.4-22.5h647.8c38.7 0 70.1 29.3 70.1 65.4v663.2c0 36.1-31.4 65.4-70.1 65.4z" p-id="6723"></path></svg>