<svg t="1567387077166" class="icon" viewBox="0 0 1024 1024" version="1.1" xmlns="http://www.w3.org/2000/svg" p-id="3034" xmlns:xlink="http://www.w3.org/1999/xlink" width="128" height="128"><defs><style type="text/css"></style></defs><path d="M341.333333 711.111111h113.777778v-113.777778h-113.777778v113.777778z m28.444445-85.333333h56.888889v56.888889h-56.888889v-56.888889z m446.577778-85.333334L520.533333 230.4c-2.844444-2.844444-8.533333-2.844444-8.533333 0-2.844444-2.844444-5.688889-2.844444-8.533333 0L207.644444 540.444444c-5.688889 8.533333-8.533333 17.066667-8.533333 28.444445v312.888889c0 31.288889 56.888889 56.888889 56.888889 56.888889h512c31.288889 0 56.888889-25.6 56.888889-56.888889V568.888889c0-8.533333-2.844444-19.911111-8.533333-28.444445zM654.222222 881.777778h-56.888889v-142.222222h56.888889v142.222222z m113.777778 0h-56.888889v-199.111111h-170.666667v199.111111H256V585.955556l256-261.688889 256 261.688889V881.777778z m190.577778-369.777778L540.444444 93.866667c-8.533333-5.688889-19.911111-8.533333-28.444444-8.533334-8.533333-2.844444-19.911111 0-28.444444 8.533334L65.422222 512c-14.222222 14.222222-14.222222 34.133333 0 45.511111 14.222222 14.222222 34.133333 14.222222 45.511111 0l398.222223-398.222222 398.222222 398.222222c14.222222 14.222222 34.133333 14.222222 45.511111 0 17.066667-11.377778 17.066667-31.288889 5.688889-45.511111z" p-id="3035"></path></svg>