<svg t="1567238491404" class="icon" viewBox="0 0 1024 1024" version="1.1" xmlns="http://www.w3.org/2000/svg" p-id="4176" xmlns:xlink="http://www.w3.org/1999/xlink" width="128" height="128"><defs><style type="text/css"></style></defs><path d="M512 257.024c31.744 0 62.464 4.096 93.184 13.312 19.456 6.144 40.96-6.144 46.08-25.6 6.144-20.48-6.144-40.96-25.6-46.08-36.864-10.24-74.752-16.384-113.664-16.384-190.464 2.048-356.352 132.096-406.528 317.44-4.096 13.312-4.096 27.648 0 40.96 13.312 48.128 34.816 94.208 63.488 135.168 7.168 10.24 18.432 16.384 29.696 16.384 8.192 0 15.36-2.048 21.504-7.168 16.384-12.288 20.48-34.816 9.216-52.224-23.552-33.792-41.984-72.704-53.248-112.64 41.984-153.6 178.176-261.12 335.872-263.168z m406.528 242.688c-39.936-133.12-124.928-206.848-124.928-206.848s-9.216-10.24-27.648-11.264c-21.504 0-37.888 17.408-37.888 38.912 0 21.504 8.192 24.576 8.192 24.576 52.224 46.08 91.136 107.52 109.568 175.104-40.96 152.576-178.176 254.976-335.872 257.024-86.016-2.048-159.744-35.84-159.744-35.84s-22.528-10.24-27.648-10.24c-21.504 0-39.936 16.384-39.936 36.864s21.504 30.72 21.504 30.72 99.328 58.368 206.848 58.368c190.464-2.048 356.352-132.096 406.528-317.44 4.096-12.288 4.096-26.624 1.024-39.936zM510.976 333.824c-102.4 0-185.344 83.968-185.344 186.368S408.576 706.56 510.976 706.56c102.4 0 185.344-83.968 185.344-186.368s-82.944-186.368-185.344-186.368z m0 306.176c-66.56 0-119.808-54.272-119.808-120.832 0-66.56 53.248-120.832 119.808-120.832 66.56 0 119.808 54.272 119.808 120.832 0 66.56-53.248 120.832-119.808 120.832z" p-id="4177"></path></svg>