<?xml version="1.0" encoding="utf-8"?>
<!-- Generator: Adobe Illustrator 16.0.0, SVG Export Plug-In . SVG Version: 6.00 Build 0)  -->
<!DOCTYPE svg PUBLIC "-//W3C//DTD SVG 1.1//EN" "http://www.w3.org/Graphics/SVG/1.1/DTD/svg11.dtd">
<svg version="1.1" id="图层_1" xmlns="http://www.w3.org/2000/svg" xmlns:xlink="http://www.w3.org/1999/xlink" x="0px" y="0px"
	 width="128.125px" height="128px" viewBox="0 0 128.125 128" enable-background="new 0 0 128.125 128" xml:space="preserve">
<path d="M110.667,87.286L87.528,64.147c1.476-4.132,2.242-8.5,2.242-12.986c0-21.25-17.294-38.604-38.604-38.604
	c-5.313,0-10.448,1.063-15.348,3.188l-2.302,1.003c-0.236,0.118-0.413,0.236-0.59,0.414c-0.767,0.764-0.768,2.005-0.003,2.771
	c0.001,0.001,0.002,0.001,0.003,0.002L54.591,41.54L41.604,54.526L20.414,33.394c-0.059,0-0.059,0-0.118-0.059
	c-0.885-0.885-2.361-0.885-3.247,0c-0.236,0.236-0.413,0.531-0.531,0.826h-0.059l-0.708,1.653
	c-2.125,4.84-3.188,10.035-3.188,15.288c0,21.31,17.295,38.604,38.604,38.604c4.427,0,8.795-0.768,12.986-2.243l23.139,23.139
	c3.129,3.129,7.261,4.84,11.688,4.84c4.427,0,8.559-1.711,11.687-4.84C117.102,104.228,117.102,93.72,110.667,87.286z
	 M105.473,105.468c-1.712,1.712-4.073,2.715-6.492,2.715c-2.479,0-4.782-0.944-6.494-2.715L65.864,78.846l-2.302,1.003
	c-3.954,1.713-8.086,2.598-12.396,2.598c-17.236,0-31.226-13.989-31.226-31.226c0-2.42,0.295-4.723,0.827-7.025l19.42,19.42
	c0.826,0.649,1.948,0.649,2.774,0.06l20.424-20.424c0.827-0.826,0.885-2.125,0.118-3.01L44.143,20.703
	c2.302-0.532,4.663-0.827,7.024-0.827c17.236,0,31.226,13.99,31.226,31.226c0,4.309-0.886,8.441-2.597,12.396l-1.003,2.302
	l26.621,26.621C109.073,96.023,109.073,101.866,105.473,105.468z"/>
</svg>
